<?xml version="1.0" encoding="utf-8"?>
<!-- Generator: Adobe Illustrator 14.0.0, SVG Export Plug-In . SVG Version: 6.00 Build 43363)  -->
<!DOCTYPE svg PUBLIC "-//W3C//DTD SVG 1.1//EN" "http://www.w3.org/Graphics/SVG/1.1/DTD/svg11.dtd">
<svg version="1.1" id="Layer_1" xmlns="http://www.w3.org/2000/svg" xmlns:xlink="http://www.w3.org/1999/xlink" x="0px" y="0px"
   width="293px" height="288px" viewBox="0 0 293 288" enable-background="new 0 0 293 288" xml:space="preserve">
 <!-- Created with Method Draw - http://github.com/duopixel/Method-Draw/ -->
  <polygon fill="#00c7ff" points="124.698,103.009 146.770,32.727 168.842,103.009 240.270,103.009 182.483,146.446 204.556,216.727 146.770,173.290 88.983,216.727 111.056,146.446 53.270,103.009"/>
  <polygon points="9.822,138.894 33.572,120.750 62.928,120.750 86.678,138.894 95.750,168.250 86.678,197.606 62.928,215.750 33.572,215.750 9.822,197.606 0.750,168.250"  fill="#0bb946"/>
  <polygon points="205.822,137.894 229.572,119.750 258.928,119.750 282.678,137.894 291.750,167.250 282.678,196.606 258.928,214.750 229.572,214.750 205.822,196.606 196.750,167.250"  fill="#0bb946"/>
  <polygon points="107.822,210.894 131.572,192.750 160.928,192.750 184.678,210.894 193.750,240.250 184.678,269.606 160.928,287.750 131.572,287.750 107.822,269.606 98.750,240.250"  fill="#0bb946"/>
  <polygon points="169.822,18.894 193.572,0.750 222.928,0.750 246.678,18.894 255.750,48.250 246.678,77.606 222.928,95.750 193.572,95.750 169.822,77.606 160.750,48.250"  fill="#0bb946"/>
  <polygon points="47.822,19.894 71.572,1.750 100.928,1.750 124.678,19.894 133.750,49.250 124.678,78.606 100.928,96.750 71.572,96.750 47.822,78.606 38.750,49.250"  fill="#0bb946"/>
</svg>